<svg xmlns="http://www.w3.org/2000/svg" viewBox="0 0 87.46 16.81"><defs><style>.cls-1{fill:#fff;}</style></defs><g id="Layer_2" data-name="Layer 2"><g id="Layer_1-2" data-name="Layer 1"><path class="cls-1" d="M3,16.81A3.08,3.08,0,0,1,.8,15.93C0,15.12,0,14.28,0,12.47S0,9.82.8,9A3.05,3.05,0,0,1,3,8.13a2.88,2.88,0,0,1,3,2.54H5A2,2,0,0,0,3,8.94a2.07,2.07,0,0,0-1.48.6c-.54.56-.6,1.14-.6,2.93s.06,2.38.6,2.93A2.07,2.07,0,0,0,3,16,2.05,2.05,0,0,0,5,14.27H6A2.88,2.88,0,0,1,3,16.81Z"/><path class="cls-1" d="M12.93,16.74v-3.9h-4v3.9H8V8.2h.91V12h4V8.2h.91v8.54Z"/><path class="cls-1" d="M21.23,16.74,19.28,13H17.23v3.79h-.91V8.2h3.27a2.31,2.31,0,0,1,2.53,2.38,2.22,2.22,0,0,1-1.85,2.29l2,3.87ZM19.51,9H17.23v3.13h2.28a1.5,1.5,0,0,0,1.7-1.56A1.5,1.5,0,0,0,19.51,9Z"/><path class="cls-1" d="M24.19,16.74V8.2h.91v8.54Z"/><path class="cls-1" d="M29.77,16.81a3.75,3.75,0,0,1-2.93-1.12l.63-.63a2.92,2.92,0,0,0,2.32.94c1.25,0,2-.59,2-1.59a1.35,1.35,0,0,0-.41-1.06,1.78,1.78,0,0,0-1.11-.41l-1-.16a3.15,3.15,0,0,1-1.57-.64,2.05,2.05,0,0,1-.65-1.6c0-1.45,1.05-2.41,2.74-2.41a3.46,3.46,0,0,1,2.54.93l-.59.59a2.69,2.69,0,0,0-2-.73A1.58,1.58,0,0,0,28,10.5a1.23,1.23,0,0,0,.39,1,2.47,2.47,0,0,0,1.15.47l.93.14a2.75,2.75,0,0,1,1.56.6,2.12,2.12,0,0,1,.72,1.69C32.72,15.89,31.55,16.81,29.77,16.81Z"/><path class="cls-1" d="M37.14,9v7.72h-.91V9H33.76V8.2h5.85V9Z"/><path class="cls-1" d="M45.81,15.93a3.14,3.14,0,0,1-4.36,0c-.81-.81-.81-1.65-.81-3.46s0-2.65.81-3.45a3.11,3.11,0,0,1,4.36,0c.81.8.81,1.64.81,3.45S46.62,15.12,45.81,15.93ZM45.1,9.56a2,2,0,0,0-1.47-.62,2.08,2.08,0,0,0-1.48.62c-.54.55-.6,1.12-.6,2.91s.06,2.36.6,2.92a2.11,2.11,0,0,0,1.48.61,2.07,2.07,0,0,0,1.47-.61c.54-.56.6-1.13.6-2.92S45.64,10.11,45.1,9.56Z"/><path class="cls-1" d="M52,13.23H49.68v3.51h-.91V8.2H52a2.43,2.43,0,0,1,2.63,2.51A2.44,2.44,0,0,1,52,13.23ZM51.86,9H49.68v3.39h2.18a1.61,1.61,0,0,0,1.81-1.7A1.61,1.61,0,0,0,51.86,9Z"/><path class="cls-1" d="M61.29,16.74v-3.9h-4v3.9h-.91V8.2h.91V12h4V8.2h.91v8.54Z"/><path class="cls-1" d="M64.68,16.74V8.2H70V9H65.59v3h3.74v.81H65.59v3.09H70v.81Z"/><path class="cls-1" d="M76.78,16.74,74.84,13h-2v3.79h-.91V8.2h3.27a2.31,2.31,0,0,1,2.53,2.38,2.22,2.22,0,0,1-1.86,2.29l2,3.87ZM75.07,9H72.79v3.13h2.28a1.51,1.51,0,0,0,1.7-1.56A1.51,1.51,0,0,0,75.07,9Z"/><path class="cls-1" d="M76.22,5.74V3.14h-2.7v2.6h-.61V.05h.61V2.6h2.7V.05h.61V5.74Z"/><path class="cls-1" d="M81.71,5.2a2.09,2.09,0,0,1-2.91,0c-.54-.54-.54-1.1-.54-2.31s0-1.76.54-2.3a2.09,2.09,0,0,1,2.91,0c.54.54.54,1.1.54,2.3S82.25,4.66,81.71,5.2ZM81.24,1a1.39,1.39,0,0,0-2,0c-.36.37-.4.75-.4,1.94s0,1.58.4,1.95a1.39,1.39,0,0,0,2,0c.36-.37.4-.75.4-1.95S81.6,1.32,81.24,1Z"/><path class="cls-1" d="M87,5.13a2.08,2.08,0,0,1-3,.07c-.54-.54-.54-1.1-.54-2.31s0-1.76.54-2.3A2,2,0,0,1,85.46,0a1.94,1.94,0,0,1,2,1.7h-.61A1.37,1.37,0,0,0,85.46.54a1.42,1.42,0,0,0-1,.41c-.36.37-.4.75-.4,1.94s0,1.59.4,2a1.41,1.41,0,0,0,1,.4,1.37,1.37,0,0,0,1.07-.49,1.45,1.45,0,0,0,.32-1V3.29H85.46V2.76h2v.9A1.92,1.92,0,0,1,87,5.13Z"/></g></g></svg>