<svg xmlns="http://www.w3.org/2000/svg" width="67" height="67" viewBox="0 0 67 67"><g transform="translate(-23 15)"><circle cx="33.5" cy="33.5" r="33.5" transform="translate(23 -15)" fill="#374fe9"/><path d="M18.858,26.817,15.37,22.556a1.686,1.686,0,0,0-1.969-.485L5.527,25.446a1.687,1.687,0,0,0-.977,1.934l1.688,7.313A1.687,1.687,0,0,0,7.882,36a32.428,32.428,0,0,0,18.963-6.11L21.22,25.545c-.766.457-1.554.893-2.362,1.273ZM44.564,32.21,33.405,23.59A32.379,32.379,0,0,0,40.5,3.375,1.685,1.685,0,0,0,39.192,1.73L31.88.042a1.7,1.7,0,0,0-1.934.977L26.571,8.895a1.683,1.683,0,0,0,.485,1.969l4.261,3.488a25.242,25.242,0,0,1-3.234,5.119L3.2.239a1.129,1.129,0,0,0-1.582.2L.239,2.208a1.12,1.12,0,0,0,.2,1.575L41.808,35.754a1.129,1.129,0,0,0,1.582-.2l1.378-1.779a1.114,1.114,0,0,0-.2-1.568Z" transform="translate(34.097 0.001)" fill="#fff"/></g></svg>