<?xml version="1.0" encoding="utf-8"?>
<!-- Generator: Adobe Illustrator 24.2.1, SVG Export Plug-In . SVG Version: 6.00 Build 0)  -->
<svg version="1.1" id="Layer_1" xmlns="http://www.w3.org/2000/svg" xmlns:xlink="http://www.w3.org/1999/xlink" x="0px" y="0px"
	 viewBox="0 0 900 174" style="enable-background:new 0 0 900 174;" xml:space="preserve">
<style type="text/css">
	.st0{fill:#FFFFFF;}
</style>
<g transform="translate(0.000000,174.000000) scale(0.100000,-0.100000)">
	<path class="st0" d="M2977,1582c-11-2-17-13-17-33c0-32,2-34,29-17c10,6,26,8,36,5c14-6,16-17,12-65c-3-31-6-66-8-77
		c-4-19,3-20,138-27c77-4,350-4,605,0c254,4,843,5,1308,2s855-2,868,2c12,4,22,14,22,23c0,11-11,15-44,15c-25,0-48,5-51,10
		c-4,7-43,8-110,4c-74-5-113-3-134,6c-26,10-35,10-56-4c-30-20-69-21-85-1c-18,22-3,35,44,35c50,0,59,6,45,31c-8,16-17,18-49,13
		c-39-6-40-6-40,21c0,28,0,28,56,22c43-4,56-2,61,9c3,8,2,18-2,22c-7,7-187,4-194-4c-2-2,3-12,12-22c11-12,17-36,17-68
		c0-65-14-73-105-63c-38,4-176,6-305,4c-657-8-631-8-647,8c-12,11-14,27-8,66c4,28,11,51,16,51c18,0,8,28-12,33c-33,9-50-3-47-31
		c3-22-2-27-29-32c-40-9-56,1-51,31c3,21-1,24-33,27l-36,3l4-73c2-40,0-78-4-83c-5-7-99-8-292-3c-172,5-289,4-295-1
		c-19-16-473-16-491-1c-10,8-15,30-15,66c0,51,2,54,24,54c14,0,28-4,31-10c3-5,10-10,14-10c14,0,21,44,10,55
		C3160,1584,3016,1589,2977,1582z M4334,1450c23-22-44-60-69-40c-18,15-19,46-2,54C4278,1470,4322,1462,4334,1450z"/>
	<path class="st0" d="M0,1238c0-24,4-26,71-32c88-9,99-13,99-37c0-15-7-19-40-19c-58,0-54-26,6-33c84-9,79,19,79-475
		c0-273-4-452-10-477c-16-58-60-85-141-85H0V50V20l158,4l157,4l3,213c2,180,5,216,19,231c14,16,15,44,10,249c-5,202-4,231,10,236
		c17,7,39-18,73-82c12-22,30-53,40-70c11-16,24-39,30-50s18-32,28-47c35-54,107-169,120-191c7-12,42-67,77-122s76-124,90-152
		c30-59,63-71,83-30c6,12,25,45,42,72c16,28,33,57,37,65s26,43,50,78s43,65,43,67s13,23,29,47s37,59,48,78c10,19,31,54,46,77
		c15,24,27,46,27,50c0,3,6,14,14,22c7,9,26,39,41,66c75,137,102,174,116,157c3-4,3-168,1-364c-5-412-1-398-93-398c-59,0-89-13-89-40
		c0-22,36-36,68-26c10,4,62,7,115,7c68,1,100,5,108,15s11,125,10,401c-2,435-3,431,59,412c52-16,608-24,775-10c128,10,141,10,152-6
		c10-13,10-20-1-32c-14-16-196-319-196-327c0-2-18-34-41-70c-22-37-45-77-50-88c-5-12-18-34-29-51c-11-16-23-37-27-45
		c-8-19-62-90-82-110c-27-25-66-48-91-52c-13-1-25-8-27-15c-8-24,31-31,112-22c50,5,113,5,169-2c74-8,92-7,104,5c20,19,7,36-27,36
		c-16,0-45,7-65,15c-45,19-48,51-11,116c14,24,27,51,31,59c18,44,40,83,50,87c6,2,126,5,265,6c271,2,264,3,289-48c6-11,19-33,30-50
		c11-16,24-40,29-52c5-11,15-24,20-28c6-3,11-22,11-40c0-41-22-56-90-65c-30-3-46-10-48-21c-5-26,22-30,129-17c75,8,143,8,272-1
		c184-12,541-14,725-3c113,7,159,1,147-18c-3-5-25-10-49-10c-60,0-106-18-106-41c0-22-9-21,150-19c155,2,164,7,154,91
		c-4,35-2,59,4,63c6,3,77,1,157-5c126-10,149-9,161,3c21,20,0,37-52,42c-123,11-144,36-144,169c0,76,2,87,18,87c243,3,955-1,962-5
		c6-4,7-72,3-175c-5-141-4-170,8-175c8-3,66-6,129-7c109-3,115-2,115,17c0,17-8,20-45,23c-66,3-88,10-110,32c-18,18-20,34-20,188
		c0,117,4,172,12,180c7,7,33,12,59,12c52,0,25,23,347-288c90-86,171-159,180-161s22-11,28-20c11-14,64-16,541-16l528,1l3,23
		c5,34-7,41-75,45c-67,4-94,15-117,48c-14,19-16,75-16,403c0,341,2,383,17,405c25,37,32,40,99,40c33,0,65,5,71,11
		c16,16,433,15,461,0c12-6,39-11,62-11c31,0,55-9,93-34c65-43,307-288,307-310c0-13-11-16-55-16c-68,0-70-13-10-59
		c51-38,59-70,23-99c-60-48-275-239-339-302c-131-126-195-170-245-170c-32,0-94-26-94-39c0-23,37-29,125-19c50,5,166,6,258,3l169-7
		l-4,28c-3,28-4,29-73,32c-54,2-75,8-92,23l-21,21l20,33c10,19,38,50,61,71c105,92,174,154,239,217c45,43,78,67,93,67
		c16,0,39-18,72-56c52-61,55-64,158-179c39-43,78-87,87-96c10-10,20-29,23-41c10-42-8-53-97-58c-80-5-83-6-86-30l-3-25h348l348,1v25
		c0,22-5,25-60,30c-85,9-131,32-189,95c-28,30-94,99-146,153c-52,55-118,123-146,152c-28,30-76,78-107,107c-32,30-57,62-57,72
		c0,32,47,53,102,47l50-6l101,93c56,51,129,119,162,150c92,87,154,119,237,121c78,3,90,10,81,44l-6,23l-116-8c-140-10-180-10-294,1
		l-89,8l4-29c3-28,5-29,68-34c65-5,65-5,68-37c3-29-7-41-144-162c-108-96-154-131-173-131c-20,0-47,23-117,98
		c-130,139-146,160-146,189c0,33,29,56,62,49c14-3,42,0,63,6c29,9,37,16,35,31c-3,19-17,19-528,23c-311,2-564-1-620-7
		c-52-5-120-13-150-16s-120,0-198,7c-123,12-145,11-153-1c-21-33-6-44,74-50c51-3,83-10,93-21c14-13,16-65,15-414c0-220,0-406,0-415
		c-1-23-67-48-125-47c-27,0-52-5-55-10c-9-15-178-19-193-4c-7,7-26,12-43,12c-61,1-114,38-288,204c-34,32-82,74-107,94s-49,41-55,47
		c-5,6-22,20-37,29c-20,13-28,27-28,47c0,27,3,29,38,30c20,0,60,8,87,18l50,18l3,189c2,186,2,189-20,206c-13,10-34,18-48,18
		s-45,7-70,16c-62,22-432,33-455,14c-14-12-15-44-10-276c7-260,6-262-14-274c-16-8-36-8-79,0c-83,16-789,10-819-8c-19-11-27-10-48,4
		l-25,16v264c0,199,3,265,13,271c6,4,79,6,161,4c163-3,178-8,218-64c12-17,24-46,27-65c7-38,29-59,55-49c15,6,16,19,10,114
		c-4,60-11,114-17,121c-8,10-73,13-310,11c-284-2-301-3-320-22s-33-20-288-18l-268,2l-16-37c-12-28-15-64-13-139l3-100l27-3
		c20-2,28,2,32,20c22,78,33,101,64,129c42,39,81,48,196,49c49,0,107,5,129,12c69,21,67,31,67-443c0-230-2-423-5-431
		c-8-19-843-12-889,8c-47,21-77,51-106,109c-6,11-18,32-28,47c-9,15-37,60-61,100s-48,76-53,79s-10,19-11,35c-2,27,0,29,31,26
		c47-3,50,19,10,80c-19,29-38,60-41,68c-4,8-16,29-27,45c-11,17-24,39-30,50s-19,34-30,50c-10,17-29,50-42,75s-27,48-33,52
		c-20,15-140,9-164-8c-20-14-34-15-113-5c-58,8-255,11-554,11c-255-1-469,2-475,6c-7,4-9,20-6,39c8,46-16,65-81,65
		c-57,0-55,2-153-158c-24-40-52-85-61-100c-10-15-22-36-27-47s-20-36-33-55s-27-42-31-50s-16-28-27-45c-11-16-23-37-27-45
		s-19-33-33-55s-37-61-51-88c-40-79-52-91-77-78c-12,7-22,18-22,25s-14,32-30,54c-17,23-30,46-30,50c0,5-12,27-28,49
		c-15,21-32,48-39,59c-10,16-37,59-113,179c-50,80-138,222-157,253c-20,36-23,37-80,38c-87,1-93,5-93,64v50h-53c-30,0-102,3-160,7
		l-107,6V1238z M5759,1051c81-28,120-69,134-137c12-62-3-105-53-154c-60-58-98-70-245-81c-182-13-165-33-165,190c0,103,3,191,7,195
		C5451,1078,5711,1068,5759,1051z M2643,856c16-31,33-58,38-61c5-4,9-12,9-20s14-34,30-58c17-25,30-47,30-51c0-3,13-25,29-48
		c18-25,26-47,21-52c-7-7-369-12-432-7c-15,2-8,23,20,65c15,22,31,48,35,56s19,35,33,60s42,74,60,110C2574,959,2591,960,2643,856z"
		/>
</g>
</svg>
